<?xml version="1.0" encoding="UTF-8"?>
<svg id="Layer_2" data-name="Layer 2" xmlns="http://www.w3.org/2000/svg" viewBox="0 0 626.11 119.44">
  <defs>
    <style>
      .cls-1 {
        fill: #1e4890;
      }

      .cls-2 {
        fill: #b9da43;
      }
    </style>
  </defs>
  <g id="Layer_1-2" data-name="Layer 1">
    <g>
      <path class="cls-1" d="M0,115.9v-.45c0-.41.23-.79.59-.99l13.56-7.4c1.45-.8,1.77-1.29,1.77-3.21V17.2c0-1.93-.32-2.41-1.77-3.21L.59,6.59c-.36-.2-.59-.58-.59-.99v-.45c0-.62.5-1.13,1.13-1.13h46.94c21.38,0,37.29,9.81,37.29,28.45,0,11.63-7.03,20.75-17.5,23.88-1.09.33-1.06,1.87.04,2.16,13.56,3.61,22.93,12.51,22.93,27.49,0,19.93-17.04,31.02-41.31,31.02H1.13c-.62,0-1.13-.5-1.13-1.13ZM31.67,55.3c0,.62.5,1.13,1.13,1.13h14.95c10.93,0,20.25-6.91,20.25-23.63,0-14.63-8.04-22.34-20.41-22.34h-13.82c-1.77,0-2.09.32-2.09,2.25v42.6ZM48.55,110.6c15.59,0,24.92-8.2,24.92-24.76s-11.41-23.31-25.08-23.31h-15.59c-.62,0-1.13.5-1.13,1.13v44.69c0,1.93.32,2.25,2.09,2.25h14.79Z"/>
      <path class="cls-1" d="M94.84,115.9v-.16c0-.4.21-.76.55-.97l11.51-6.91c1.45-1.12,1.77-1.45,1.77-3.21v-49.99c0-1.77-.16-2.09-1.29-3.21l-12.16-10.76c-.24-.21-.38-.52-.38-.84v-.29c0-.62.5-1.13,1.13-1.13h24.27c.62,0,1.13.5,1.13,1.13v14.74c0,1.22,1.66,1.56,2.16.45,5.92-13.29,13.21-18.24,21.63-18.24,2.82,0,5.64.55,8.97,2.03.49.22.75.76.63,1.28l-5.05,21.7c-.12.51-.57.87-1.1.87h-.37c-.41,0-.79-.23-.99-.59l-7.4-13.56c-.64-1.12-.8-1.29-1.93-1.29-1.45,0-2.89.8-4.5,2.41-3.83,3.83-7.66,10.03-10.23,17.83-.04.12-.06.24-.06.37v35.82c0,2.09.32,2.57,2.09,3.38l17.98,8.06c.41.18.67.58.67,1.03v.07c0,.62-.5,1.13-1.13,1.13h-46.77c-.62,0-1.13-.5-1.13-1.13Z"/>
      <path class="cls-1" d="M202.06,74.57c.71.16,1.39-.36,1.39-1.09.02-4.96.16-8.91.16-11.12,0-13.5-6.27-19.93-17.84-19.93-1.93,0-3.05.16-4.18.32-1.13.16-2.09.96-2.57,2.09l-9.65,17.89c-.2.36-.58.59-.99.59h-.38c-.52,0-.97-.35-1.09-.85l-5.01-19.73c-.14-.55.15-1.12.68-1.33,8.62-3.43,16.27-4.93,24.96-4.93,21.86,0,29.58,10.45,29.58,27.49,0,13.5-.64,26.36-.64,37.29,0,5.63,2.09,8.68,5.79,8.68,2.37,0,4.26-.97,5.88-2.81.41-.47,1.13-.52,1.6-.11l.04.04c.32.28.46.73.34,1.14-1.97,6.81-7.74,10.57-14.13,10.57-6.77,0-11.31-4.08-12.65-10.82-.19-.98-1.43-1.27-2.02-.46-4.64,6.37-12.32,11.28-22.14,11.28-12.7,0-21.86-7.88-21.86-20.25,0-14.79,13.18-25.24,32.63-25.24,3.88,0,8.15.39,12.12,1.27ZM202.97,95.92c.15-4.21.3-9.38.31-14.6,0-.55-.39-1.02-.93-1.12-3.01-.53-5.76-.79-8.39-.79-13.5,0-21.54,7.23-21.54,17.52,0,8.52,5.79,13.18,12.7,13.18s14.04-4.75,17.76-13.79c.05-.13.08-.26.09-.4Z"/>
      <path class="cls-1" d="M247.66,54.65c0-1.77-.16-2.09-1.29-3.21l-12.16-10.76c-.24-.21-.38-.52-.38-.84v-.29c0-.62.5-1.13,1.13-1.13h26.04c.62,0,1.13.5,1.13,1.13v65.1c0,1.77.32,2.09,1.77,3.21l11.51,6.91c.34.2.55.57.55.97v.16c0,.62-.5,1.13-1.13,1.13h-39.86c-.62,0-1.13-.5-1.13-1.13v-.16c0-.4.21-.76.55-.97l11.51-6.91c1.45-1.12,1.77-1.45,1.77-3.21v-49.99ZM252.16,0c5.95,0,10.45,4.5,10.45,10.77,0,5.79-4.5,10.45-10.45,10.45-5.63,0-10.13-4.66-10.13-10.45,0-6.27,4.5-10.77,10.13-10.77Z"/>
      <path class="cls-1" d="M331.56,115.9v-.17c0-.39.21-.76.54-.96l11.35-6.9c1.77-1.12,1.93-1.45,1.93-3.21,0-5.31.16-25.72.16-33.28,0-20.41-7.88-25.4-16.4-25.4s-15.3,5.67-19.79,13.89c-.09.17-.14.36-.14.55v44.23c0,1.77.32,2.09,1.77,3.21l11.51,6.91c.34.2.55.57.55.97v.16c0,.62-.5,1.13-1.13,1.13h-39.86c-.62,0-1.13-.5-1.13-1.13v-.16c0-.4.21-.76.55-.97l11.51-6.91c1.45-1.12,1.77-1.45,1.77-3.21v-49.99c0-1.77-.16-2.09-1.29-3.21l-12.16-10.76c-.24-.21-.38-.52-.38-.84v-.29c0-.62.5-1.13,1.13-1.13h24.27c.62,0,1.13.5,1.13,1.13v9.98c0,1.12,1.47,1.56,2.07.61,4.88-7.74,12.58-13.65,24.13-13.65,16.56,0,26.52,10.29,26.52,32.31,0,10.93-.16,23.15-.32,35.85,0,1.77.32,2.09,1.77,3.21l11.51,6.91c.34.2.55.57.55.97v.16c0,.62-.5,1.13-1.13,1.13h-39.86c-.62,0-1.13-.5-1.13-1.13Z"/>
      <path class="cls-2" d="M462.23,37.78c3.38-2.09,4.5-4.66,4.5-7.72s-2.04-5.38-7.79-6.72c-.52-.12-.89-.57-.89-1.1h0c0-.58.44-1.07,1.01-1.13,10.62-.97,21.49,2.5,21.49,12,0,5.95-4.18,9.64-10.45,13.66l-16.54,10.42c-.86.54-.61,1.82.37,2.06,8.04,1.93,13.43,9.97,13.43,20.31,0,21.38-20.9,39.87-47.1,39.87-27.81,0-44.21-15.59-44.21-35.69,0-14.01,9.08-25.71,24.93-31.14.93-.32,1.05-1.59.18-2.05-7.68-4.07-12.41-10.86-12.41-20.02,0-15.43,14.31-28.77,34.88-28.77,8.52,0,14.3,1.01,20.35,3.43.57.23.85.89.62,1.46l-7.35,18.67c-.17.43-.59.71-1.05.71h-.59c-.44,0-.85-.26-1.03-.67l-6.77-15.09c-1.13-2.41-1.13-2.57-3.54-2.57-12.7,0-19.93,12.7-19.93,23.79,0,6.94,2.48,12.95,9.1,18.79.24.21.39.52.39.84v.67c0,.53-.38.98-.9,1.1-12.83,2.82-20.97,12.18-20.97,25.37,0,15.43,11.09,28.29,31.67,28.29,22.5,0,36.01-14.63,36.01-30.22,0-9-5.31-13.99-11.09-13.99-2.57,0-5.79,1.29-9.48,3.7l-5.14,3.54c-2.41,1.77-3.54,3.22-3.54,5.63s1.48,5.37,8.25,6.6c.53.1.91.57.91,1.11v.08c0,.52-.35.99-.86,1.1-9.4,2.07-21.8-2.73-21.8-11.3,0-6.91,4.5-10.13,11.57-14.47l33.76-20.58Z"/>
      <path class="cls-1" d="M521.9,108.83c8.72,0,14.67-3.49,19.66-8.68.43-.44,1.12-.48,1.58-.06l.34.31c.36.33.48.85.28,1.3-4.54,9.91-15.11,17.26-28.12,17.26-20.58,0-35.53-14.15-35.53-39.38,0-26.84,17.52-43.08,41.31-43.08,6.6,0,13.5,1.03,20.82,3.36.58.18.91.8.74,1.38l-5.91,21.12c-.14.49-.58.82-1.09.82h-.39c-.42,0-.8-.23-1-.61l-9.17-17.56c-.64-1.13-.64-1.61-1.77-1.77-.8-.16-1.77-.32-2.89-.32-13.66,0-25.24,11.25-25.24,33.6s12.06,32.31,26.36,32.31Z"/>
      <path class="cls-1" d="M549.92,78.45c0-26.36,18-41.96,38.58-41.96s37.62,14.31,37.62,40.51-18,41.96-38.58,41.96-37.61-14.31-37.61-40.51ZM609.39,77.8c0-18.65-6.91-34.88-21.7-34.88s-21.06,15.75-21.06,34.72,6.91,34.88,22.02,34.88c13.99,0,20.74-15.75,20.74-34.72Z"/>
    </g>
  </g>
</svg>