<?xml version="1.0" encoding="UTF-8"?>
<svg id="Layer_2" data-name="Layer 2" xmlns="http://www.w3.org/2000/svg" viewBox="0 0 575.19 106.84">
  <defs>
    <style>
      .cls-1 {
        fill: #f6f9ee;
      }

      .cls-2 {
        fill: #b8d446;
      }
    </style>
  </defs>
  <g id="Layer_1-2" data-name="Layer 1">
    <g>
      <path class="cls-1" d="M0,5.78v-1.44L19.35,1.44h4.33v35.23c0,4.19-1.01,7.22-3.32,13.57l1.3.58c3.75-11.55,11.98-17.47,23.24-17.47,15.3,0,31.47,13.57,31.47,36.67s-14.15,36.82-32.34,36.82c-8.66,0-15.16-2.74-20.36-7.8l-16.6,6.35h-2.17V10.68L0,5.78ZM39.27,47.07c-7.94,0-15.59,5.92-15.59,16.75v25.41c4.19,3.75,8.95,5.49,13.57,5.49,10.25,0,19.64-8.52,19.64-24.4s-8.95-23.25-17.61-23.25Z"/>
      <path class="cls-1" d="M147.55,42.45l-7.51,19.2-1.01.14-3.03-5.34c-3.47-6.06-9.53-9.53-16.31-9.53-8.95,0-15.59,6.21-15.59,14.73v37.39l4.91,4.91v1.44h-28.59v-1.44l4.91-4.91v-55.3l-4.91-4.91v-1.44l19.35-2.89h4.33v4.76c0,1.15-1.01,4.33-3.32,10.83l1.3.58c3.61-11.12,11.55-17.47,21.8-17.47,8.66,0,14.29,2.17,23.68,9.24Z"/>
      <path class="cls-1" d="M176.71,106.84c-16.31,0-24.98-9.24-24.98-20.5,0-26.28,34.8-23.53,42.88-31.47l-.43-4.48c-.72-6.06-5.49-9.67-11.26-9.67s-13.14,3.9-17.33,13.43l-2.74,5.92-1.16.43-9.53-19.2c7.94-5.05,18.48-8.08,28.59-8.08,16.03,0,31.19,7.8,33.21,28.15l3.9,37.68,5.49,4.91.14,1.44h-23.82l-.43-5.63c-.14-2.74,1.01-5.92,1.88-8.52l-1.3-.58c-1.3,3.9-2.45,5.92-4.48,7.8-5.05,4.62-11.98,8.37-18.62,8.37ZM195.48,62.23c-8.09,7.22-24.26,7.65-24.26,20.79,0,6.93,4.62,11.7,11.55,11.7,5.34,0,10.83-2.31,15.3-7.22l-2.6-25.27Z"/>
      <path class="cls-1" d="M252.22,99.04l4.91,4.91v1.44h-28.59v-1.44l4.91-4.91v-55.15l-4.91-4.91v-1.44l19.35-2.89h4.33v64.39ZM240.96,1.44c6.35,0,10.4,3.9,10.4,10.4s-4.04,10.25-10.4,10.25-10.4-3.75-10.4-10.25,4.04-10.4,10.4-10.4Z"/>
      <path class="cls-1" d="M282.4,50.1l1.3.58c3.32-10.25,15.02-17.47,26.85-17.47,14.15,0,22.09,8.95,22.09,24.69v41.15l4.91,4.91v1.44h-28.59v-1.44l4.91-4.91v-36.67c0-9.82-5.78-14.29-12.13-14.29-7.65,0-16.03,6.35-16.03,17.47v33.5l4.91,4.91v1.44h-28.59v-1.44l4.91-4.91v-55.15l-4.91-4.91v-1.44l19.35-2.89h4.33v5.05c0,1.01-1.01,4.04-3.32,10.4Z"/>
      <path class="cls-2" d="M403.96,105.4l-5.49-5.92c-5.78,4.62-14.15,7.36-22.23,7.36-20.5,0-35.95-12.71-35.95-29.6,0-9.67,5.78-19.63,14.58-25.12-4.33-6.21-6.64-13.43-6.64-20.65,0-18.62,12.99-31.47,31.76-31.47,13.14,0,23.97,6.21,32.49,18.62l-15.3,14.58-1.01-1.01.58-9.82c-3.03-9.82-7.8-14.44-15.02-14.44-7.65,0-13.43,7.36-13.43,17.18,0,8.52,4.19,18.05,11.98,26.28l24.69,26.42c2.02-4.33,3.75-9.24,5.2-14.73l-10.83-6.35v-1.44h28.44v1.44l-10.68,6.35c-1.88,8.08-4.04,14.73-6.79,20.5l20.36,21.8h-26.71ZM376.24,98.9c5.92,0,12.56-2.02,16.75-5.2l-32.2-34.65c-4.04,5.2-6.06,11.12-6.06,18.19,0,12.99,8.66,21.66,21.51,21.66Z"/>
      <path class="cls-1" d="M499.82,41l-7.51,19.2-1.3-.43-3.32-5.92c-5.34-9.53-12.71-13.43-18.62-13.43-9.53,0-15.88,11.26-15.88,27.87s8.37,26.42,21.66,26.42c9.96,0,16.46-3.18,20.79-9.96l2.02,1.44c-5.92,13.28-16.03,20.65-28.59,20.65-22.09,0-36.82-14.73-36.82-36.82s15.02-36.82,38.26-36.82c9.53,0,21.51,3.18,29.31,7.8Z"/>
      <path class="cls-1" d="M538.37,33.21c22.09,0,36.82,14.73,36.82,36.82s-14.73,36.82-36.82,36.82-36.82-14.73-36.82-36.82,14.73-36.82,36.82-36.82ZM538.37,99.62c9.38,0,15.88-11.98,15.88-29.6s-6.5-29.6-15.88-29.6-15.88,11.98-15.88,29.6,6.5,29.6,15.88,29.6Z"/>
    </g>
  </g>
</svg>